<svg width="1008" height="1008" viewBox="0 0 1008 1008" fill="none" xmlns="http://www.w3.org/2000/svg">
<g clip-path="url(#clip0_75_2)">
<path fill-rule="evenodd" clip-rule="evenodd" d="M599.558 673.344V323.165C599.558 317.319 599.356 311.674 598.348 306.835C597.34 301.795 595.929 297.36 594.114 293.328C591.897 289.296 589.074 286.272 585.244 283.853C581.212 281.232 575.97 280.022 570.124 280.022V273.571H830.188V337.68L823.535 336.874C823.535 329.818 823.334 322.762 822.527 315.907C822.124 309.255 819.705 303.005 815.875 297.562C812.044 292.522 806.198 288.086 798.134 284.659C790.07 281.232 778.377 279.619 763.459 279.619H633.023V399.571V476.381V482.832V569.117V729.994H763.459C778.377 729.994 790.07 728.381 798.134 724.954C806.198 721.93 812.246 717.293 815.875 712.051C819.705 706.608 822.124 700.56 822.527 693.706C823.334 687.053 823.535 679.997 823.535 672.941L830.188 671.933V736.243H570.124V729.591C577.583 729.591 583.228 727.978 587.058 724.551C591.09 721.527 594.114 716.89 596.13 711.648C598.348 706.205 599.154 700.157 599.759 693.303C599.558 687.456 599.558 680.199 599.558 673.344Z" fill="black"/>
<path fill-rule="evenodd" clip-rule="evenodd" d="M157.248 730.196C165.312 730.196 171.36 727.978 175.392 723.543C179.222 719.309 182.448 714.471 184.666 709.431L326.189 302.4C328.81 292.723 328.608 286.474 325.987 283.853C323.165 281.232 315.706 279.821 304.416 279.821V273.37H356.026L506.419 703.786C510.048 711.245 514.483 717.495 520.531 722.535C525.975 727.575 533.837 730.196 543.514 730.196V736.848H451.584V730.196C459.245 730.196 464.083 728.583 467.107 725.76C469.93 722.333 471.341 718.301 471.341 713.463C471.341 708.221 470.535 702.576 469.123 695.924C467.511 689.271 465.495 682.618 463.479 676.167L430.819 583.229H430.618L428.199 576.576H429.005L333.648 301.795L237.686 576.576H237.888L235.67 583.229H235.469L192.528 706.608C189.101 717.091 188.698 723.744 192.125 726.365C194.947 728.986 200.39 730.397 207.85 730.397V737.05H157.248V730.196Z" fill="black"/>
<path fill-rule="evenodd" clip-rule="evenodd" d="M829.987 424.57C828.778 437.875 829.786 450.778 828.576 463.478C827.568 477.59 819.504 494.928 814.262 507.83C784.224 552.989 735.638 570.73 684.835 581.213C634.234 589.277 589.68 586.858 539.482 580.003C530.611 580.003 520.934 577.383 512.467 575.971C435.053 563.472 361.065 535.853 285.264 516.499C253.008 508.435 218.937 503.395 185.472 500.976C174.585 500.17 163.901 499.766 152.813 499.565C152.813 499.565 135.273 500.573 140.717 496.944C151.805 495.331 163.296 493.315 174.384 492.509C220.349 488.275 286.877 504 332.035 515.088C401.99 532.426 470.333 551.981 541.901 562.464C560.448 565.286 579.197 566.899 598.147 567.706C627.178 568.714 654.394 567.504 683.021 562.464C721.526 554.199 769.104 541.699 790.272 505.008C796.723 493.92 800.957 481.018 805.795 468.922C812.045 452.995 818.899 438.278 827.971 423.763L830.794 419.53L829.987 424.57Z" fill="black"/>
</g>
<defs>
<clipPath id="clip0_75_2">
<rect width="1008" height="1008" fill="white"/>
</clipPath>
</defs>
</svg>
