<svg width="2326" height="534" viewBox="0 0 2326 534" fill="none" xmlns="http://www.w3.org/2000/svg">
<g clip-path="url(#clip0_48_41)">
<path fill-rule="evenodd" clip-rule="evenodd" d="M2185.62 162.973C2198.78 160.355 2212.44 159.313 2225.84 159.313C2244.76 159.313 2263.44 161.398 2281.84 166.39C2296.82 170.583 2312.33 176.617 2325.22 185.514L2326 186.046V233.478L2323.11 227.2C2319.17 217.239 2313.11 208.342 2305.5 200.999C2297.62 193.656 2288.94 187.643 2279.22 182.918C2269.22 178.192 2258.72 174.532 2247.68 172.18C2236.9 169.829 2225.87 168.52 2214.83 168.52C2210.08 168.52 2205.37 168.786 2200.89 169.296C2196.15 169.829 2191.7 170.339 2187.23 171.137C2165.93 175.597 2146.74 185.025 2130.18 199.18C2113.36 213.6 2099.69 230.35 2089.18 249.74C2078.41 269.662 2071.31 290.871 2067.64 313.146C2064.21 334.887 2063.97 357.161 2068.42 378.659C2072.63 398.581 2080.24 416.906 2090.76 434.211C2101.03 451.493 2113.89 467.222 2129.14 480.578C2144.11 493.933 2160.67 504.693 2179.08 512.813C2196.95 520.667 2215.63 524.86 2235.08 524.86C2243.49 524.86 2252.17 523.817 2260.59 522.242C2269.53 520.401 2277.92 517.783 2286.09 514.122C2294.24 510.462 2301.61 505.736 2308.17 499.968C2314.74 494.466 2319.75 487.655 2323.42 480.046L2326.04 474.011V502.053L2325.27 502.32C2310.55 512.791 2294.51 520.933 2277.17 526.169C2260.07 531.404 2242.47 534.022 2224.33 534.022C2202.78 534.022 2182.02 530.362 2161.76 523.018C2141.78 515.675 2123.39 505.714 2106.83 492.625C2090.01 479.269 2075.81 463.273 2064.26 445.459C2052.44 426.845 2044.27 406.679 2039.55 385.203C2034.3 360.578 2034.03 335.42 2039.28 310.794C2044.54 286.945 2053.48 264.671 2067.15 244.504C2080.55 224.072 2097.64 206.767 2117.63 192.879C2138.13 178.215 2161.01 168.253 2185.71 163.018L2185.62 162.973ZM1941.15 525.858C1945.63 525.858 1950.61 525.082 1954.31 522.198C1957.47 519.58 1959.56 516.163 1961.14 512.503C1962.72 507.777 1963.5 503.074 1963.5 498.348C1963.77 492.58 1963.77 487.078 1963.77 481.576V200.422C1963.77 196.229 1963.5 192.036 1962.72 187.577C1962.19 184.16 1961.14 180.5 1959.56 177.105C1957.98 174.221 1955.62 171.87 1952.73 170.028C1949.3 167.943 1945.09 167.41 1941.15 167.41H1939.84V159.291H2017.38V167.41H2015.8C2011.33 167.41 2006.34 167.943 2002.92 171.071C1999.76 173.689 1997.66 176.839 1996.08 180.766C1994.5 185.225 1993.72 190.195 1993.46 194.92C1993.46 200.422 1993.19 206.19 1993.19 211.692V489.962C1993.46 498.615 1994.77 507.511 1997.66 515.631C2000.56 523.75 2007.92 525.858 2015.8 525.858H2017.38V533.978H1939.84V525.858H1941.15ZM1889.63 486.302V200.444C1889.63 196.251 1889.36 192.058 1888.85 187.599C1888.07 184.182 1887 180.522 1885.42 177.127C1883.84 174.243 1881.48 171.892 1878.59 170.05C1875.16 167.965 1871.22 167.433 1867.28 167.433H1865.7V159.313H1921.43V167.433H1919.85C1913.55 167.433 1906.7 168.741 1903.29 174.776C1899.87 180.81 1898.55 187.887 1897.77 194.698V534H1889.63V532.425L1662.25 181.321V481.598C1662.25 487.1 1662.25 492.602 1662.52 498.371C1662.78 503.096 1663.29 507.799 1665.14 512.525C1666.46 516.185 1668.81 519.602 1671.98 522.22C1675.4 525.104 1680.39 525.88 1684.86 525.88H1686.18V534H1630.18V525.88H1631.49C1635.96 525.88 1640.95 525.104 1644.64 522.22C1647.8 519.602 1649.9 516.185 1651.21 512.525C1653.06 508.066 1653.84 503.096 1653.84 498.371C1654.1 492.602 1654.1 487.1 1654.1 481.598V200.444C1654.1 196.251 1653.84 192.058 1653.06 187.599C1652.52 184.182 1651.48 180.522 1649.63 177.127C1648.32 174.243 1645.96 171.892 1643.06 170.05C1639.64 167.965 1635.43 167.433 1631.49 167.433H1630.18V159.313H1678.01L1889.61 486.302H1889.63ZM1535.54 525.858C1540.01 525.858 1545 525.082 1548.69 522.198C1551.85 519.58 1553.95 516.163 1555.26 512.503C1557.11 507.777 1557.89 503.074 1557.89 498.348C1558.15 492.58 1558.15 487.078 1558.15 481.576V200.422C1558.15 196.229 1557.89 192.036 1557.11 187.577C1556.57 184.16 1555.53 180.5 1553.68 177.105C1552.37 174.221 1550.01 171.87 1547.11 170.028C1543.69 167.943 1539.48 167.41 1535.54 167.41H1534.23V159.291H1611.5V167.41H1610.19C1605.72 167.41 1600.73 167.943 1597.3 171.071C1594.14 173.689 1591.78 176.839 1590.47 180.766C1588.89 185.225 1588.11 190.195 1587.84 194.92C1587.58 200.422 1587.58 206.19 1587.58 211.692V489.962C1587.84 498.615 1589.16 507.511 1592.05 515.631C1594.94 523.75 1602.31 525.858 1610.19 525.858H1611.5V533.978H1534.23V525.858H1535.54ZM1330.24 525.858H1460.35C1469.04 525.858 1479.81 525.326 1487.95 521.931C1493.21 519.846 1498.46 516.696 1501.62 512.236C1504.51 508.043 1506.36 503.318 1506.6 498.082C1507.38 492.58 1507.38 487.078 1507.38 481.576V480.267L1515.53 479.491V534H1276.58V525.88H1278.16C1282.63 525.88 1287.62 525.104 1291.05 522.22C1294.21 519.602 1296.3 516.185 1297.88 512.525C1299.46 507.799 1300.24 503.096 1300.5 498.371C1300.5 492.602 1300.77 487.1 1300.77 481.598V200.444C1300.77 196.251 1300.5 192.058 1299.73 187.599C1298.95 184.182 1297.88 180.522 1296.3 177.127C1294.72 174.243 1292.63 171.892 1289.73 170.05C1286.3 167.965 1282.1 167.433 1278.16 167.433H1276.58V159.313H1354.12V167.433H1352.81C1348.33 167.433 1343.35 167.965 1339.65 171.093C1336.49 173.711 1334.4 176.861 1333.09 180.788C1331.24 185.247 1330.46 190.217 1330.46 194.942C1330.2 200.444 1330.2 206.212 1330.2 211.714V525.88L1330.24 525.858ZM1117.84 162.973C1131.24 160.355 1144.66 159.313 1158.33 159.313C1177 159.313 1195.92 161.398 1214.06 166.39C1229.3 170.583 1244.55 176.617 1257.7 185.514L1258.24 186.046V233.478L1255.61 227.2C1251.41 217.239 1245.62 208.342 1237.74 200.999C1229.86 193.656 1221.18 187.643 1211.45 182.918C1201.46 178.192 1190.95 174.532 1180.18 172.18C1169.14 169.829 1158.1 168.52 1147.06 168.52C1142.32 168.52 1137.6 168.786 1133.13 169.296C1128.66 169.829 1123.94 170.339 1119.47 171.137C1098.17 175.597 1078.98 185.025 1062.42 199.18C1045.59 213.6 1031.93 230.35 1021.42 249.74C1010.65 269.662 1003.55 290.871 999.878 313.146C996.45 334.887 996.205 357.161 1000.66 378.659C1004.86 398.581 1012.74 416.906 1023 434.211C1033.51 451.493 1046.13 467.222 1061.37 480.578C1076.35 493.933 1092.91 504.693 1111.32 512.813C1129.19 520.667 1147.87 524.86 1167.32 524.86C1176 524.86 1184.41 523.817 1192.82 522.242C1201.77 520.401 1210.16 517.783 1218.33 514.122C1226.48 510.462 1233.84 505.736 1240.41 499.968C1246.98 494.466 1251.98 487.655 1255.66 480.046L1258.28 474.011V502.053L1257.75 502.32C1243.04 512.791 1226.99 520.933 1209.65 526.169C1192.31 531.404 1174.68 534.022 1156.55 534.022C1135.25 534.022 1114.23 530.362 1093.98 523.018C1074.26 515.675 1055.61 505.714 1039.05 492.625C1022.22 479.269 1008.29 463.273 996.739 445.459C984.654 426.845 976.508 406.679 972.034 385.203C966.781 360.578 966.514 335.42 971.767 310.794C976.753 286.945 985.967 264.671 999.366 244.504C1012.76 224.072 1029.86 206.767 1049.84 192.879C1070.34 178.215 1093.22 168.253 1117.93 163.018L1117.84 162.973Z" fill="#DFBC60"/>
<path fill-rule="evenodd" clip-rule="evenodd" d="M531.678 460.877V57.3712C531.678 50.5603 531.144 44.5259 530.098 38.5137C529.051 32.7455 527.471 27.5098 525.112 23.0505C523.02 18.3251 519.325 14.6645 514.851 11.7804C510.378 9.16253 504.346 7.58737 497.246 7.58737V0H797.962V74.1432L790.327 73.3668C790.327 65.2469 790.06 57.1271 789.281 49.2514C788.502 41.3978 785.854 34.3206 781.647 28.2862C777.174 22.2518 770.341 17.2823 760.881 13.3555C751.422 9.69497 738.001 7.58737 720.663 7.58737H570.049V526.39H720.663C738.001 526.39 751.422 524.549 760.881 520.622C770.341 516.962 777.174 511.97 781.647 505.692C785.854 499.657 788.48 492.602 789.281 484.726C790.06 476.873 790.327 468.997 790.327 460.877L797.962 460.101V534H497.246V526.413C505.926 526.413 512.492 524.571 517.233 520.644C521.707 516.984 525.112 511.992 527.493 505.714C529.853 499.679 531.166 492.624 531.433 484.749C531.7 476.895 531.7 469.019 531.7 460.899L531.678 460.877Z" fill="black"/>
<path fill-rule="evenodd" clip-rule="evenodd" d="M20.6772 526.391C29.6246 526.391 36.7024 523.773 41.176 518.803C45.9168 513.567 49.3221 508.332 51.9485 502.83L215.716 33.5442C218.61 22.5403 218.61 15.1969 215.182 12.3128C212.021 9.16253 203.608 7.58737 190.477 7.58737V0H250.148L423.909 495.73C427.849 504.383 433.368 511.704 439.934 517.472C446.5 523.506 455.447 526.391 466.754 526.391V533.978H360.298V526.391C368.979 526.391 375.01 524.549 378.171 521.155C381.598 517.494 383.156 512.769 383.156 507.001C383.156 501.232 382.377 494.421 380.53 486.834C378.683 478.981 376.59 471.371 373.964 463.784L336.639 357.139H336.105L333.478 349.551H334.257L224.129 32.7455L113.2 349.529H113.734L111.108 357.117H110.841L61.1629 498.859C56.9563 511.171 56.6892 518.781 60.3839 521.643C63.8115 524.793 70.1103 526.368 78.7905 526.368V533.956H20.6772V526.368V526.391Z" fill="black"/>
<path fill-rule="evenodd" clip-rule="evenodd" d="M797.962 174.243C796.648 189.707 797.427 204.371 796.381 219.058C795.335 235.297 785.876 255.486 779.555 270.417C745.123 322.286 688.857 342.985 629.987 354.787C571.362 364.482 520.104 361.598 461.746 353.745C452.02 353.478 440.446 350.328 430.72 348.775C341.09 334.355 255.912 302.918 168.375 280.644C130.516 270.949 91.3656 265.447 52.705 262.829C40.0853 262.053 27.7326 261.52 15.1128 261.254C15.1128 261.254 -5.1189 262.031 1.17986 258.37C14.0667 256.018 27.1984 253.911 40.3523 252.868C93.1907 247.899 169.955 265.98 221.992 278.803C302.964 298.725 382.088 321.243 464.617 333.556C486.162 336.706 507.996 338.526 529.808 339.324C563.194 340.367 594.999 339.058 627.851 333.556C672.543 323.595 727.206 309.707 751.667 267.266C759.279 254.177 764.287 239.49 769.539 225.336C776.906 206.989 784.785 190.217 795.291 173.467L798.451 168.741L797.917 174.243H797.962Z" fill="#DFBC60"/>
</g>
<defs>
<clipPath id="clip0_48_41">
<rect width="2326" height="534" fill="white"/>
</clipPath>
</defs>
</svg>
