<?xml version="1.0" encoding="UTF-8"?>
<svg id="_Слой_2" data-name="Слой 2" xmlns="http://www.w3.org/2000/svg" viewBox="0 0 692.53 574.46">
  <defs>
    <style>
      .cls-1 {
        fill: #dfbc60;
      }

      .cls-1, .cls-2 {
        fill-rule: evenodd;
        stroke-width: 0px;
      }
    </style>
  </defs>
  <g id="_Слой_1-2" data-name="Слой 1">
    <g id="_1_лого" data-name="1 лого">
      <path class="cls-1" d="m621.08,384.66c6.73-1.3,13.7-1.89,20.55-1.89,9.57,0,19.13,1.18,28.46,3.78,7.68,2.13,15.59,5.08,22.2,9.68l.24.24v24.33l-1.3-3.31c-2.13-5.08-5.08-9.57-9.09-13.35-4.02-3.78-8.5-6.85-13.35-9.21-5.2-2.48-10.51-4.37-16.06-5.55-5.55-1.3-11.22-1.89-16.89-1.89-2.36,0-4.72.12-7.09.35-2.24.35-4.61.59-6.85.94-10.98,2.36-20.67,7.2-29.17,14.41-8.62,7.32-15.59,15.94-20.9,25.86-5.43,10.16-9.09,21.02-10.98,32.48-1.77,11.1-1.89,22.44.47,33.54,2.13,10.04,6.02,19.49,11.34,28.34,5.31,8.86,11.81,16.89,19.49,23.74,7.68,6.85,16.18,12.28,25.51,16.42,9.09,4.02,18.66,6.26,28.58,6.26,4.37,0,8.74-.59,12.99-1.42,4.49-.83,8.86-2.24,13.11-4.13,4.02-1.89,7.79-4.25,11.22-7.2,3.31-2.83,5.91-6.26,7.68-10.28l1.3-2.95v14.29l-.24.12c-7.56,5.43-15.71,9.57-24.57,12.28-8.74,2.6-17.83,3.9-26.93,3.9-10.98,0-21.61-1.89-31.89-5.55-10.28-3.66-19.61-8.86-28.11-15.59-8.5-6.85-15.71-15-21.61-24.09-6.14-9.57-10.27-19.84-12.64-30.82-2.72-12.64-2.83-25.51-.12-38.15,2.6-12.16,7.2-23.5,14.05-33.9,6.97-10.39,15.59-19.25,25.75-26.46,10.51-7.44,22.2-12.52,34.84-15.24h0Zm-124.6,185.66c2.24,0,4.72-.35,6.61-1.89,1.54-1.3,2.72-2.95,3.43-4.96.83-2.24,1.18-4.84,1.3-7.2.12-2.83.12-5.67.12-8.62v-143.73c0-2.24-.12-4.37-.47-6.5-.35-1.89-.94-3.78-1.77-5.43-.71-1.53-1.89-2.72-3.43-3.66-1.65-1.06-3.78-1.42-5.79-1.42h-.71v-4.13h39.45v4.13h-.71c-2.24,0-4.84.35-6.61,1.89-1.65,1.3-2.72,3.07-3.42,5.08-.94,2.24-1.3,4.72-1.42,7.2,0,2.83-.12,5.67-.12,8.5v142.43c.24,4.37.83,8.98,2.36,13.11,1.42,4.13,5.2,5.2,9.21,5.2h.71v4.13h-39.45v-4.13h.71Zm-26.34-20.2v-146.21c0-2.24-.12-4.37-.47-6.5-.35-1.89-.94-3.78-1.77-5.43-.71-1.53-1.89-2.72-3.31-3.66-1.77-1.06-3.9-1.42-5.91-1.42h-.71v-4.13h28.34v4.13h-.71c-3.31,0-6.85.83-8.5,3.9-1.77,3.07-2.48,6.61-2.83,10.16v173.49h-4.13v-.71l-115.98-179.64v153.54c0,2.95,0,5.79.12,8.62.12,2.48.47,4.96,1.3,7.2.83,2.01,1.89,3.66,3.54,4.96,1.77,1.54,4.25,1.89,6.61,1.89h.71v4.13h-28.7v-4.13h.71c2.36,0,4.84-.35,6.61-1.89,1.65-1.3,2.83-2.95,3.54-4.96.83-2.24,1.18-4.84,1.3-7.2.12-2.83.12-5.67.12-8.62v-143.73c0-2.24-.12-4.37-.59-6.5-.24-1.89-.83-3.78-1.65-5.43-.71-1.53-1.89-2.72-3.43-3.66-1.77-1.06-3.78-1.42-5.91-1.42h-.71v-4.13h24.57l107.83,167.35Zm-180.58,20.2c2.24,0,4.84-.35,6.61-1.89,1.65-1.3,2.72-2.95,3.43-4.96.94-2.24,1.3-4.84,1.42-7.2,0-2.83.12-5.67.12-8.62v-143.73c0-2.24-.24-4.37-.59-6.5-.35-1.89-.83-3.78-1.65-5.43-.83-1.53-2.01-2.72-3.42-3.66-1.77-1.06-3.9-1.42-5.91-1.42h-.71v-4.13h39.45v4.13h-.71c-2.24,0-4.72.35-6.61,1.89-1.54,1.3-2.72,3.07-3.43,5.08-.83,2.24-1.18,4.72-1.3,7.2-.12,2.83-.12,5.67-.12,8.5v142.43c.12,4.37.71,8.98,2.24,13.11,1.42,4.13,5.2,5.2,9.21,5.2h.71v4.13h-39.45v-4.13h.71Zm-104.76,0h66.49c4.37,0,9.8-.24,13.94-1.89,2.72-1.18,5.31-2.72,7.09-5.08,1.42-2.13,2.24-4.61,2.6-7.2.24-2.83.35-5.67.35-8.5v-.59l4.13-.47v27.87h-121.88v-4.13h.71c2.36,0,4.84-.35,6.61-1.89,1.65-1.3,2.83-2.95,3.54-4.96.83-2.24,1.18-4.84,1.3-7.2.12-2.83.12-5.67.12-8.62v-143.73c0-2.24-.12-4.37-.47-6.5-.35-1.89-.94-3.78-1.77-5.43-.71-1.53-1.89-2.72-3.43-3.66-1.65-1.06-3.78-1.42-5.91-1.42h-.71v-4.13h39.56v4.13h-.71c-2.24,0-4.84.35-6.61,1.89-1.65,1.3-2.72,3.07-3.54,5.08-.83,2.24-1.18,4.72-1.3,7.2,0,2.83-.12,5.67-.12,8.5v160.74Zm-108.18-185.66c6.73-1.3,13.7-1.89,20.55-1.89,9.57,0,19.13,1.18,28.46,3.78,7.68,2.13,15.59,5.08,22.2,9.68l.24.24v24.33l-1.3-3.31c-2.13-5.08-5.08-9.57-9.09-13.35-4.02-3.78-8.5-6.85-13.35-9.21-5.2-2.48-10.51-4.37-16.06-5.55-5.55-1.3-11.22-1.89-16.89-1.89-2.36,0-4.72.12-7.09.35-2.24.35-4.61.59-6.85.94-10.98,2.36-20.67,7.2-29.17,14.41-8.62,7.32-15.59,15.94-20.9,25.86-5.55,10.16-9.09,21.02-10.98,32.48-1.77,11.1-1.89,22.44.47,33.54,2.01,10.04,6.02,19.49,11.34,28.34,5.31,8.86,11.81,16.89,19.49,23.74s16.18,12.28,25.51,16.42c9.09,4.02,18.66,6.26,28.58,6.26,4.37,0,8.74-.59,12.99-1.42,4.49-.83,8.86-2.24,13.11-4.13,4.02-1.89,7.79-4.25,11.22-7.2,3.31-2.83,5.91-6.26,7.68-10.28l1.3-2.95v14.29l-.24.12c-7.56,5.43-15.71,9.57-24.57,12.28-8.74,2.6-17.83,3.9-26.93,3.9-10.98,0-21.61-1.89-31.89-5.55-10.28-3.66-19.61-8.86-28.11-15.59-8.5-6.85-15.71-15-21.61-24.09-6.14-9.57-10.28-19.84-12.64-30.82-2.72-12.64-2.83-25.51-.12-38.15,2.6-12.16,7.2-23.5,14.05-33.9,6.97-10.39,15.59-19.25,25.75-26.46,10.51-7.44,22.2-12.52,34.84-15.24h0Z"/>
      <path class="cls-2" d="m413.22,235.74V29.29c0-3.43-.24-6.61-.71-9.57-.59-2.95-1.42-5.67-2.6-8.03-1.18-2.36-2.83-4.25-5.2-5.67-2.36-1.42-5.31-2.13-8.98-2.13V0h153.3v37.79l-3.9-.35c0-4.13-.12-8.27-.59-12.28-.35-4.02-1.65-7.56-3.9-10.75-2.13-3.07-5.67-5.67-10.51-7.56-4.84-2.01-11.69-2.95-20.43-2.95h-76.89v265.38h76.89c8.74,0,15.59-.94,20.43-2.95,4.84-2.01,8.39-4.49,10.51-7.56,2.24-3.19,3.54-6.73,3.9-10.75.47-4.02.59-8.15.59-12.28l3.9-.47v37.91h-153.3v-3.9c4.37,0,7.79-.94,10.16-2.95,2.36-2.01,4.02-4.49,5.2-7.56,1.18-3.19,1.89-6.73,2.01-10.75.12-4.02.12-8.15.12-12.28h0Z"/>
      <path class="cls-2" d="m152.56,269.28c4.72,0,8.27-1.3,10.63-3.9,2.24-2.6,4.13-5.31,5.43-8.27L252.12,17.13c1.54-5.67,1.54-9.33-.24-10.87-1.65-1.54-5.91-2.36-12.64-2.36V0h30.47l88.58,253.69c2.01,4.37,4.72,8.03,8.15,11.1,3.43,2.95,7.91,4.49,13.7,4.49v3.9h-54.33v-3.9c4.49,0,7.56-.94,9.21-2.72,1.65-1.89,2.48-4.25,2.48-7.2s-.35-6.5-1.3-10.39c-.94-3.9-2.01-7.79-3.31-11.69l-19.13-54.68h-.24l-1.3-3.9h.35l-56.22-161.92-56.57,161.92h.24l-1.3,3.9h-.12l-25.39,72.63h0c-2.01,6.26-2.13,10.16-.35,11.69,1.89,1.53,4.96,2.36,9.33,2.36v3.9h-29.64v-3.9Z"/>
      <path class="cls-1" d="m549.04,89.17c-.71,7.79-.24,15.35-.71,22.91-.59,8.27-5.43,18.54-8.62,26.22-17.6,26.57-46.3,37.08-76.3,43.23-29.88,4.84-55.98,3.42-85.74-.59-5.08-.12-10.87-1.77-15.94-2.6-45.59-7.44-89.05-23.5-133.81-34.84-19.13-4.84-39.09-7.68-58.93-9.09-6.38-.47-12.64-.71-19.01-.83,0,0-10.39.47-7.2-1.54,6.61-1.06,13.23-2.13,19.96-2.72,26.93-2.6,66.14,6.73,92.71,13.35,41.22,10.16,81.49,21.61,123.65,27.87,10.98,1.65,22.09,2.6,33.19,3.07,17.13.47,33.19-.12,50.08-3.07,22.68-4.96,50.67-12.16,63.19-33.9,3.78-6.73,6.38-14.17,9.09-21.38,3.66-9.33,7.68-18.07,13.11-26.57l1.54-2.48-.24,2.95Z"/>
    </g>
  </g>
</svg>