<svg width="2324" height="534" viewBox="0 0 2324 534" fill="none" xmlns="http://www.w3.org/2000/svg">
<g clip-path="url(#clip0_48_26)">
<path fill-rule="evenodd" clip-rule="evenodd" d="M2184.01 162.973C2197.15 160.355 2210.81 159.313 2224.19 159.313C2242.85 159.313 2261.75 161.398 2279.88 166.39C2295.11 170.583 2310.35 176.617 2323.49 185.514L2324.02 186.046V233.478L2321.4 227.2C2317.19 217.239 2311.41 208.342 2303.54 200.999C2295.93 193.656 2287 187.643 2277.28 182.918C2267.29 178.192 2256.8 174.532 2246.03 172.18C2235 169.829 2223.97 168.52 2212.94 168.52C2208.21 168.52 2203.76 168.786 2199.02 169.296C2194.55 169.829 2190.08 170.339 2185.63 171.137C2164.11 175.597 2145.18 185.025 2128.37 199.18C2111.56 213.6 2097.9 230.35 2087.41 249.74C2076.64 269.662 2069.55 290.871 2066.13 313.145C2062.46 334.887 2062.19 357.161 2066.9 378.659C2070.84 398.581 2078.71 416.906 2088.96 434.211C2099.46 451.493 2112.34 467.222 2127.3 480.578C2142.27 493.933 2159.08 504.693 2177.21 512.813C2195.06 520.667 2213.72 524.86 2233.16 524.86C2241.83 524.86 2250.5 523.817 2258.89 522.242C2267.56 520.4 2276.23 517.783 2284.37 514.122C2292.24 510.461 2299.6 505.736 2306.43 499.968C2312.72 494.466 2318 487.655 2321.4 480.045L2324.02 474.011V502.053L2323.49 502.319C2308.79 512.791 2292.76 520.933 2275.43 526.169C2258.11 531.404 2240.5 534.022 2222.64 534.022C2201.11 534.022 2180.1 530.362 2160.13 523.018C2140.16 515.675 2121.52 505.714 2104.98 492.625C2088.16 479.269 2074.24 463.273 2062.7 445.459C2050.89 426.845 2042.49 406.679 2038.02 385.203C2032.77 360.578 2032.5 335.42 2037.75 310.794C2042.73 286.945 2051.94 264.671 2065.33 244.504C2078.71 224.072 2095.79 206.767 2115.76 192.879C2136.24 178.215 2159.1 168.253 2184.05 163.018L2184.01 162.973ZM1939.75 525.858C1944.22 525.858 1949.2 525.082 1952.62 522.198C1955.78 519.58 1958.14 516.163 1959.45 512.503C1961.03 507.777 1961.81 503.074 1962.07 498.348C1962.07 492.58 1962.34 487.078 1962.34 481.576V200.422C1962.34 196.229 1962.07 192.036 1961.29 187.577C1960.52 184.16 1959.45 180.5 1957.87 177.105C1956.29 174.221 1954.2 171.87 1951.31 170.028C1947.89 167.943 1943.68 167.41 1939.75 167.41H1938.43V159.291H2015.65V167.41H2014.33C2009.86 167.41 2004.88 167.943 2001.19 171.071C1998.03 173.689 1995.94 176.839 1994.63 180.766C1992.78 185.225 1992.01 190.195 1992.01 194.92C1991.74 200.422 1991.74 206.19 1991.74 211.692V489.962C1992.01 498.615 1993.32 507.511 1996.21 515.631C1999.1 523.75 2006.46 525.858 2014.33 525.858H2015.65V533.978H1938.43V525.858H1939.75ZM1888.26 486.302V200.444C1888.26 196.251 1888 192.058 1887.22 187.599C1886.69 184.182 1885.64 180.522 1883.79 177.127C1882.22 174.243 1880.13 171.892 1877.23 170.05C1873.81 167.965 1869.63 167.433 1865.67 167.433H1864.36V159.313H1919.78V167.433H1918.46C1911.9 167.433 1905.08 168.741 1901.65 174.776C1898.49 180.81 1896.92 187.887 1896.4 194.698V534H1888.26V532.425L1661.08 181.321V481.598C1661.08 487.1 1661.08 492.602 1661.35 498.37C1661.35 503.096 1662.12 507.799 1663.7 512.525C1665.28 516.185 1667.37 519.602 1670.53 522.22C1674.2 525.104 1679.2 525.88 1683.41 525.88H1684.99V534H1628.79V525.88H1630.37C1634.84 525.88 1639.82 525.104 1643.24 522.22C1646.4 519.602 1648.49 516.185 1650.07 512.525C1651.65 508.065 1652.43 503.096 1652.7 498.37C1652.7 492.602 1652.96 487.1 1652.96 481.598V200.444C1652.96 196.251 1652.43 192.058 1651.92 187.599C1651.14 184.182 1650.07 180.522 1648.49 177.127C1646.91 174.243 1644.82 171.892 1641.93 170.05C1638.51 167.965 1634.33 167.433 1630.37 167.433H1628.79V159.313H1676.85L1888.26 486.302ZM1534.48 525.858C1538.95 525.858 1543.93 525.082 1547.35 522.198C1550.51 519.58 1552.6 516.163 1554.18 512.503C1555.76 507.777 1556.54 503.074 1556.8 498.348C1556.8 492.58 1557.07 487.078 1557.07 481.576V200.422C1557.07 196.229 1556.54 192.036 1556.03 187.577C1555.25 184.16 1554.18 180.5 1552.6 177.105C1551.02 174.221 1548.93 171.87 1546.04 170.028C1542.62 167.943 1538.44 167.41 1534.48 167.41H1532.9V159.291H1610.38V167.41H1609.06C1604.59 167.41 1599.61 167.943 1595.92 171.071C1592.76 173.689 1590.67 176.839 1589.09 180.766C1587.52 185.225 1586.74 190.195 1586.74 194.92C1586.47 200.422 1586.47 206.19 1586.47 211.692V489.962C1586.74 498.615 1587.78 507.511 1590.94 515.631C1593.56 523.75 1600.93 525.858 1609.06 525.858H1610.38V533.978H1532.9V525.858H1534.48ZM1329.09 525.858H1459.36C1468.03 525.858 1478.53 525.326 1486.67 521.931C1491.91 519.846 1497.16 516.696 1500.59 512.236C1503.48 508.043 1505.06 503.318 1505.57 498.082C1506.1 492.58 1506.35 487.078 1506.35 481.576V480.267L1514.49 479.491V534H1275.74V525.88H1277.05C1281.52 525.88 1286.5 525.104 1290.19 522.22C1293.35 519.602 1295.44 516.185 1296.75 512.525C1298.6 507.799 1299.38 503.096 1299.38 498.37C1299.64 492.602 1299.64 487.1 1299.64 481.598V200.444C1299.64 196.251 1299.38 192.058 1298.6 187.599C1298.06 184.182 1297.02 180.522 1295.44 177.127C1293.86 174.243 1291.5 171.892 1288.61 170.05C1285.19 167.965 1281.01 167.433 1277.05 167.433H1275.74V159.313H1352.95V167.433H1351.64C1347.17 167.433 1342.18 167.965 1338.76 171.093C1335.6 173.711 1333.24 176.861 1331.93 180.788C1330.35 185.247 1329.58 190.217 1329.31 194.942C1329.31 200.444 1329.04 206.212 1329.04 211.714V525.88L1329.09 525.858ZM1117.13 162.973C1130.28 160.355 1143.93 159.313 1157.32 159.313C1176.22 159.313 1194.88 161.398 1213 166.39C1228.24 170.583 1243.74 176.617 1256.61 185.514L1257.15 186.046V233.478L1254.52 227.2C1250.59 217.239 1244.54 208.342 1236.93 200.999C1229.06 193.656 1220.12 187.643 1210.67 182.918C1200.42 178.192 1189.92 174.532 1179.16 172.18C1168.39 169.829 1157.36 168.52 1146.07 168.52C1141.6 168.52 1136.88 168.786 1132.14 169.296C1127.67 169.829 1123.21 170.339 1118.76 171.137C1097.23 175.597 1078.31 185.025 1061.49 199.18C1044.68 213.6 1031.03 230.35 1020.53 249.74C1010.04 269.662 1002.94 290.871 999.25 313.145C995.58 334.887 995.58 357.161 1000.03 378.659C1004.23 398.581 1011.84 416.906 1022.09 434.211C1032.58 451.493 1045.46 467.222 1060.43 480.578C1075.39 493.933 1092.21 504.693 1110.6 512.813C1128.19 520.667 1146.84 524.86 1166.28 524.86C1174.95 524.86 1183.6 523.817 1192.01 522.242C1200.68 520.4 1209.33 517.783 1217.49 514.122C1225.37 510.461 1232.99 505.736 1239.56 499.968C1245.85 494.466 1251.12 487.655 1254.52 480.045L1257.15 474.011V502.053L1256.61 502.319C1241.91 512.791 1225.88 520.933 1208.56 526.169C1191.48 531.404 1173.62 534.022 1155.76 534.022C1134.24 534.022 1113.49 530.362 1093.25 523.018C1073.28 515.675 1054.91 505.714 1038.37 492.625C1021.55 479.269 1007.37 463.273 995.825 445.459C984.016 426.845 975.855 406.679 971.141 385.203C965.892 360.578 965.625 335.42 970.874 310.794C975.855 286.945 985.062 264.671 998.449 244.504C1012.1 224.072 1029.18 206.767 1048.89 192.879C1069.63 178.215 1092.49 168.253 1117.18 163.018L1117.13 162.973Z" fill="#DFBC60"/>
<path fill-rule="evenodd" clip-rule="evenodd" d="M531.47 460.877V57.3712C531.47 50.5603 530.936 44.5259 529.891 38.5137C528.846 32.7455 527.267 27.5098 524.91 23.0505C522.552 18.3251 519.128 14.6645 514.658 11.7804C509.921 9.16253 504.161 7.58737 497.067 7.58737V0H797.527V74.1432L789.922 73.3668C789.922 65.2469 789.388 57.1271 788.61 49.2514C787.831 41.3978 785.452 34.3206 780.982 28.2862C776.779 22.2518 769.685 17.2823 760.234 13.3555C751.049 9.69497 737.64 7.58737 720.316 7.58737H569.564V526.39H720.316C737.662 526.39 751.049 524.549 760.234 520.622C769.685 516.962 776.779 511.97 780.982 505.692C785.452 499.657 787.809 492.602 788.61 484.726C789.388 476.873 789.922 468.997 789.922 460.877L797.527 460.101V534H497.067V526.413C505.74 526.413 512.301 524.571 516.77 520.644C521.507 516.984 524.91 511.992 527.267 505.714C529.357 499.679 530.691 492.624 530.936 484.749C531.203 476.895 531.47 469.019 531.47 460.899V460.877Z" fill="#FEFEFE"/>
<path fill-rule="evenodd" clip-rule="evenodd" d="M20.6372 526.391C29.8216 526.391 36.6487 523.773 41.3854 518.803C45.8553 513.567 49.5246 508.332 51.8818 502.83L215.51 33.5442C218.668 22.5403 218.401 15.1969 215.243 12.3128C211.819 9.16253 203.68 7.58737 190.292 7.58737V0H249.913L423.526 495.73C427.729 504.383 432.977 511.704 439.538 517.472C446.365 523.506 455.038 526.391 466.335 526.391V533.978H360.236V526.391C368.642 526.391 374.691 524.549 378.094 521.155C381.518 517.494 383.075 512.769 383.075 507.001C383.075 501.232 382.03 494.421 380.451 486.834C378.605 478.981 376.515 471.371 373.891 463.784L336.33 357.139H335.797L333.439 349.551H334.218L223.916 32.7455L113.081 349.529H113.615L110.991 357.117H110.724L61.0884 498.859C57.1523 511.171 56.8854 518.781 60.3101 521.643C63.9794 524.793 70.0282 526.368 78.7011 526.368V533.956H20.6372V526.368V526.391Z" fill="#FEFEFE"/>
<path fill-rule="evenodd" clip-rule="evenodd" d="M797.26 174.243C795.948 189.707 796.994 204.371 795.948 219.058C794.636 235.297 785.452 255.486 779.136 270.417C744.467 322.286 688.271 342.985 629.696 354.787C571.12 364.482 519.906 361.598 461.598 353.745C451.613 353.478 440.316 350.328 430.353 348.775C341.044 334.355 255.694 302.918 168.232 280.644C130.671 270.949 91.5321 265.447 52.6598 262.829C40.3176 262.053 27.7086 261.52 15.3664 261.254C15.3664 261.254 -5.11496 262.031 1.17844 258.37C14.3212 256.018 27.1749 253.911 40.3176 252.868C93.3779 247.899 170.055 265.98 222.07 278.803C302.973 298.725 381.762 321.243 464.222 333.556C486.015 336.706 507.564 338.526 529.357 339.324C562.981 340.367 594.493 339.058 627.583 333.556C671.971 323.595 726.854 309.707 751.294 267.266C758.655 254.177 763.636 239.49 769.151 225.336C776.245 206.989 784.118 190.217 794.881 173.467L797.772 168.741L797.238 174.243H797.26Z" fill="#DFBC60"/>
</g>
<defs>
<clipPath id="clip0_48_26">
<rect width="2324" height="534" fill="white"/>
</clipPath>
</defs>
</svg>
